<?xml version="1.0" standalone="no"?>
<!DOCTYPE svg PUBLIC "-//W3C//DTD SVG 20010904//EN"
 "http://www.w3.org/TR/2001/REC-SVG-20010904/DTD/svg10.dtd">
<svg version="1.0" xmlns="http://www.w3.org/2000/svg"
 width="753.000000pt" height="753.000000pt" viewBox="0 0 753.000000 753.000000"
 preserveAspectRatio="xMidYMid meet">
<metadata>
Created by potrace 1.14, written by Peter Selinger 2001-2017
</metadata>
<g transform="translate(0.000000,753.000000) scale(0.100000,-0.100000)"
fill="#000000" stroke="none">
<path d="M2349 7526 c-2 -2 -35 -7 -73 -10 -80 -7 -102 -10 -246 -38 -633
-121 -1223 -513 -1592 -1058 -191 -283 -338 -636 -392 -945 -3 -16 -8 -41 -11
-55 -3 -14 -8 -48 -10 -76 -3 -28 -9 -62 -12 -75 -11 -36 -13 -2870 -2 -2969
23 -223 69 -428 145 -636 44 -122 132 -313 179 -389 13 -22 32 -53 41 -70 46
-83 209 -299 281 -373 18 -18 43 -45 56 -60 59 -68 195 -188 300 -266 363
-268 805 -443 1247 -494 86 -9 2962 -9 3020 1 25 4 74 12 110 18 111 17 122
19 220 44 97 25 253 76 349 114 78 32 289 138 339 172 24 16 45 29 47 29 11 0
180 120 260 185 146 118 336 323 457 490 54 76 159 251 200 335 49 102 88 187
88 195 0 4 6 21 14 38 30 66 101 314 121 422 41 223 40 179 40 1690 0 792 -4
1469 -8 1505 -22 178 -29 225 -34 234 -3 4 -8 25 -10 45 -3 20 -20 89 -39 153
-93 325 -232 603 -435 868 -136 177 -307 343 -514 498 -28 21 -188 124 -240
154 -153 90 -448 211 -596 244 -11 2 -27 6 -37 8 -9 2 -35 9 -57 15 -43 11
-55 13 -210 39 -89 14 -261 16 -1546 19 -795 2 -1448 1 -1450 -1z"/>
</g>
</svg>
